<svg width="30" height="30" viewBox="0 0 30 30" fill="none" xmlns="http://www.w3.org/2000/svg">
<path d="M7.57144 17.6731H17.0732V15.8516H7.57144V17.6731ZM7.57144 13.7266H22.1429V11.9052H7.57144V13.7266ZM7.57144 9.78022H22.1429V7.95879H7.57144V9.78022ZM2.71429 27.357V4.89272C2.71429 4.407 2.89644 3.982 3.26072 3.61772C3.62501 3.25343 4.05001 3.07129 4.53572 3.07129H25.1786C25.6643 3.07129 26.0893 3.25343 26.4536 3.61772C26.8179 3.982 27 4.407 27 4.89272V20.6784C27 21.1641 26.8179 21.5891 26.4536 21.9534C26.0893 22.3177 25.6643 22.4999 25.1786 22.4999H7.57144L2.71429 27.357ZM6.78215 20.6784H25.1786V4.89272H4.53572V23.107L6.78215 20.6784Z" fill="black"/>
</svg>
